<?xml version="1.0" encoding="UTF-8"?>
<svg id="Camada_1" xmlns="http://www.w3.org/2000/svg" version="1.1" viewBox="0 0 286.61 332.52">
  <defs>
    <style>
      .st0 {
        fill: #e04411;
      }

      .st0, .st1 {
        fill-rule: evenodd;
      }

      .st1 {
        fill: #ea5f09;
      }
    </style>
  </defs>
  <path class="st1" d="M147.15,286.15c12.12-59.49,40.9-99.55,96.63-107.46,7.92-1.12,8.34-6.88,4.85-10.26l-17.37-16.85c-4.38-4.25-7.89-3.47-20.32-.14-44.85,12.02-76.85,45.69-94.62,111.99-1.64,6.1-.61,9.54,3.48,13.32l15.11,13.97c4.13,3.81,10.74,2.91,12.26-4.56h0Z"/>
  <path class="st1" d="M139.46,46.37c-12.11,59.49-40.9,99.55-96.63,107.46-7.92,1.12-8.34,6.88-4.85,10.26l17.37,16.85c4.38,4.24,7.89,3.47,20.32.14,44.85-12.02,76.85-45.69,94.62-111.99,1.64-6.1.61-9.54-3.48-13.32l-15.11-13.97c-4.13-3.81-10.74-2.91-12.26,4.56h0Z"/>
  <path class="st0" d="M72.35,183.84h81.62c14.38-15.77,32.76-27.76,56.5-34.12,1.19-.32,2.5-.69,3.86-1.05h-81.66c-14.38,15.78-32.77,27.78-56.51,34.14-1.17.31-2.46.68-3.8,1.03h0Z"/>
</svg>
