<?xml version="1.0" encoding="UTF-8"?>
<svg id="Camada_1" xmlns="http://www.w3.org/2000/svg" version="1.1" viewBox="0 0 1080 332.52">
  <defs>
    <style>
      .st0 {
        fill: #e04411;
      }

      .st0, .st1 {
        fill-rule: evenodd;
      }

      .st2, .st1 {
        fill: #ea5f09;
      }

      .st3 {
        fill: #007178;
      }
    </style>
  </defs>
  <path class="st3" d="M398,236.03h-26.05l-12.07-31.14h-32.52l-12.04,31.14h-25.05l44.13-111.94h19.45l44.16,111.94h0ZM351.76,184.11l-8.04-20.94-8.15,20.94h16.19Z"/>
  <path class="st3" d="M453.68,237.8c-15.86,0-28.69-4.96-38.49-14.9-9.6-10.36-14.38-24.05-14.38-41.03s4.71-30.33,14.15-41.8c10.16-11.34,22.96-17.01,38.41-17.01,11.89,0,21.82,2.24,29.84,6.72l4.4,2.16-4.25,23.34-7.84-4.56c-7.46-4.27-14.89-6.41-22.3-6.41-9.39,0-16.85,3.35-22.33,9.99-5.5,6.67-8.25,15.77-8.25,27.24s2.72,19.54,8.17,25.74c5.45,6.17,12.96,9.26,22.55,9.26s17.03-2.45,22.89-7.41l7.61-6.88,6.19,22.18-2.83,2.8c-3.72,3.59-8.81,6.28-15.22,8.02-5.91,1.71-12.02,2.56-18.33,2.56h0Z"/>
  <polygon class="st3" points="527.81 236.03 505.58 236.03 505.58 125.15 527.81 125.15 527.81 236.03 527.81 236.03"/>
  <path class="st2" d="M584.35,237.8c-12.7,0-23.82-2.16-33.33-6.49l-5.18-2.56,7.09-21.31,7.49,3.53c8.3,4.03,16.16,6.04,23.59,6.04s12.19-1.56,14.61-4.64c1.35-1.79,2.06-4.09,2.06-6.88,0-.76-.11-1.56-.34-2.37-.93-3.01-8.11-7.88-21.53-14.69-6.98-3.51-12.22-6.43-15.74-8.81-9.29-6.22-13.93-14.42-13.93-24.58,0-8.97,3.66-16.61,10.95-22.94,7.43-5.91,16.72-8.89,27.9-8.89,11.77,0,21.59,1.87,29.5,5.56l5.46,2.4-6.36,22.1-7.83-3.72c-8.3-3.8-15.23-5.7-20.77-5.7-4.79,0-8.53.92-11.23,2.8-2.7,1.9-4.03,4.48-4.03,7.78,0,1.95.84,3.67,2.53,5.09,1.21,1.5,6.11,4.48,14.69,8.97,12.25,6.12,20.97,11.66,26.15,16.61,5.32,5.09,8.11,11.87,8.3,20.3,0,9.65-3.6,17.51-10.87,23.57-7.43,5.88-17.17,8.81-29.19,8.81h0Z"/>
  <path class="st2" d="M782.14,237.8c-17.74,0-30.53-5.09-38.38-15.29-3.05-4.22-4.98-8.65-5.73-13.26-.78-4.59-1.15-9.73-1.15-15.4v-68.69h25.44v72.62c0,5.38,1.57,10.18,4.71,14.45,2.35,3.19,7.6,4.8,15.81,4.8,9.02,0,15.36-2.95,19.01-8.89,2.66-4.27,3.98-9.52,3.98-15.77v-67.22h25.01v67.22c0,13.82-4.31,24.89-12.91,33.23-8.96,8.15-20.88,12.21-35.79,12.21h0Z"/>
  <path class="st2" d="M884.9,236.03h-33.45v-110.89h38.27c19.58,0,34.51,5.43,44.78,16.24,8.49,9.36,12.73,21.17,12.73,35.47,0,17.56-5.46,31.83-16.4,42.8-11.53,10.92-26.85,16.38-45.92,16.38h0ZM885.54,215.25c12.25,0,21.64-3.3,28.18-9.89,6.57-6.59,9.83-16.11,9.83-28.51,0-9.86-2.92-17.46-8.77-22.84-5.85-5.38-14.12-8.07-24.84-8.07h-15.01v69.3h10.61Z"/>
  <polygon class="st2" points="1033.57 236.03 964.18 236.03 964.18 125.15 1033.13 125.15 1033.5 146.32 984.87 146.32 984.87 168.26 1018.52 168.26 1018.52 189.36 984.87 189.36 984.87 214.86 1033.91 214.86 1033.57 236.03 1033.57 236.03"/>
  <path class="st2" d="M732.24,236.03h-26.05l-12.07-31.14h-32.52l-12.04,31.14h-25.05l44.13-111.94h19.45l44.16,111.94h0ZM685.99,184.11l-8.04-20.94-8.15,20.94h16.19Z"/>
  <path class="st1" d="M768.99,111.29l26.93-15.41c6.66-3.81,15.23,12.67,6.83,16.08l-28.01,11.39c-5.24,2.13-11.2-8.95-5.76-12.06h0Z"/>
  <path class="st1" d="M157.34,286.15c12.12-59.49,40.9-99.55,96.63-107.46,7.92-1.12,8.34-6.88,4.85-10.26l-17.37-16.85c-4.38-4.25-7.89-3.47-20.32-.14-44.85,12.02-76.85,45.69-94.62,111.99-1.64,6.1-.61,9.54,3.48,13.32l15.11,13.97c4.13,3.81,10.74,2.91,12.26-4.56h0Z"/>
  <path class="st1" d="M149.65,46.37c-12.11,59.49-40.9,99.55-96.63,107.46-7.92,1.12-8.34,6.88-4.85,10.26l17.37,16.85c4.38,4.24,7.89,3.47,20.32.14,44.85-12.02,76.85-45.69,94.62-111.99,1.64-6.1.61-9.54-3.48-13.32l-15.11-13.97c-4.13-3.81-10.74-2.91-12.26,4.56h0Z"/>
  <path class="st0" d="M82.54,183.84h81.62c14.38-15.77,32.76-27.76,56.5-34.12,1.19-.32,2.5-.69,3.86-1.05h-81.66c-14.38,15.78-32.77,27.78-56.51,34.14-1.17.31-2.46.68-3.8,1.03h0Z"/>
</svg>
