<?xml version="1.0" encoding="UTF-8"?>
<svg id="Camada_1" xmlns="http://www.w3.org/2000/svg" version="1.1" viewBox="0 0 472 332.52">
  <defs>
    <style>
      .st0 {
        fill: #e04411;
      }

      .st0, .st1 {
        fill-rule: evenodd;
      }

      .st2, .st1 {
        fill: #ea5f09;
      }

      .st3 {
        fill: #007178;
      }
    </style>
  </defs>
  <g>
    <path class="st3" d="M90.12,315.5h-14.39l-6.67-17.2h-17.96l-6.65,17.2h-13.84l24.38-61.83h10.74l24.39,61.83h0ZM64.57,286.82l-4.44-11.57-4.5,11.57h8.94Z"/>
    <path class="st3" d="M120.88,316.48c-8.76,0-15.85-2.74-21.26-8.23-5.3-5.72-7.95-13.28-7.95-22.67s2.6-16.75,7.82-23.09c5.61-6.26,12.68-9.4,21.22-9.4,6.57,0,12.05,1.24,16.48,3.71l2.43,1.19-2.35,12.89-4.33-2.52c-4.12-2.36-8.23-3.54-12.32-3.54-5.19,0-9.31,1.85-12.33,5.52-3.04,3.69-4.56,8.71-4.56,15.05s1.5,10.79,4.51,14.22c3.01,3.41,7.16,5.11,12.46,5.11s9.41-1.35,12.64-4.09l4.2-3.8,3.42,12.25-1.56,1.54c-2.05,1.98-4.87,3.47-8.41,4.43-3.26.95-6.64,1.41-10.12,1.41h0Z"/>
    <polygon class="st3" points="161.82 315.5 149.54 315.5 149.54 254.25 161.82 254.25 161.82 315.5 161.82 315.5"/>
    <path class="st2" d="M193.05,316.48c-7.01,0-13.16-1.19-18.41-3.58l-2.86-1.41,3.92-11.77,4.14,1.95c4.59,2.23,8.93,3.34,13.03,3.34s6.73-.86,8.07-2.56c.75-.99,1.14-2.26,1.14-3.8,0-.42-.06-.86-.19-1.31-.51-1.66-4.48-4.36-11.9-8.11-3.86-1.94-6.75-3.55-8.69-4.87-5.13-3.44-7.7-7.97-7.7-13.58,0-4.95,2.02-9.18,6.05-12.67,4.11-3.26,9.24-4.91,15.41-4.91,6.5,0,11.93,1.03,16.3,3.07l3.02,1.33-3.51,12.21-4.32-2.05c-4.59-2.1-8.41-3.15-11.48-3.15-2.64,0-4.71.51-6.2,1.54-1.49,1.05-2.22,2.48-2.22,4.3,0,1.08.47,2.02,1.4,2.81.67.83,3.37,2.48,8.12,4.95,6.76,3.38,11.58,6.44,14.45,9.18,2.94,2.81,4.48,6.55,4.59,11.22,0,5.33-1.99,9.67-6,13.02-4.11,3.25-9.49,4.87-16.13,4.87h0Z"/>
    <path class="st2" d="M302.31,316.48c-9.8,0-16.87-2.81-21.2-8.45-1.68-2.33-2.75-4.78-3.17-7.33-.43-2.53-.63-5.37-.63-8.51v-37.95h14.05v40.12c0,2.97.87,5.62,2.6,7.98,1.3,1.76,4.2,2.65,8.73,2.65,4.98,0,8.48-1.63,10.5-4.91,1.47-2.36,2.2-5.26,2.2-8.71v-37.13h13.82v37.13c0,7.63-2.38,13.75-7.13,18.35-4.95,4.5-11.53,6.74-19.77,6.74h0Z"/>
    <path class="st2" d="M359.08,315.5h-18.48v-61.25h21.14c10.82,0,19.06,3,24.74,8.97,4.69,5.17,7.03,11.7,7.03,19.59,0,9.7-3.02,17.58-9.06,23.64-6.37,6.03-14.83,9.05-25.37,9.05h0ZM359.43,304.02c6.77,0,11.95-1.82,15.57-5.46,3.63-3.64,5.43-8.9,5.43-15.75,0-5.45-1.62-9.64-4.85-12.61-3.23-2.97-7.8-4.46-13.72-4.46h-8.29v38.28h5.86Z"/>
    <polygon class="st2" points="441.2 315.5 402.87 315.5 402.87 254.25 440.96 254.25 441.16 265.95 414.3 265.95 414.3 278.07 432.89 278.07 432.89 289.72 414.3 289.72 414.3 303.81 441.39 303.81 441.2 315.5 441.2 315.5"/>
    <path class="st2" d="M274.75,315.5h-14.39l-6.67-17.2h-17.96l-6.65,17.2h-13.84l24.38-61.83h10.74l24.39,61.83h0ZM249.2,286.82l-4.44-11.57-4.5,11.57h8.94Z"/>
    <path class="st1" d="M295.05,246.6l14.88-8.51c3.68-2.1,8.41,7,3.77,8.88l-15.47,6.29c-2.9,1.18-6.19-4.94-3.18-6.66h0Z"/>
  </g>
  <g>
    <path class="st1" d="M239.43,235.8c10.8-53.02,36.46-88.73,86.12-95.78,7.06-1,7.43-6.13,4.32-9.15l-15.48-15.02c-3.9-3.78-7.04-3.1-18.12-.13-39.98,10.71-68.5,40.72-84.33,99.82-1.46,5.44-.54,8.51,3.1,11.87l13.46,12.45c3.68,3.4,9.57,2.6,10.92-4.06h0Z"/>
    <path class="st1" d="M232.57,22.07c-10.8,53.02-36.46,88.73-86.12,95.78-7.06,1-7.43,6.13-4.32,9.15l15.48,15.02c3.9,3.78,7.04,3.1,18.12.13,39.98-10.71,68.5-40.72,84.33-99.82,1.46-5.44.54-8.51-3.1-11.87l-13.46-12.45c-3.68-3.4-9.57-2.6-10.92,4.06h0Z"/>
    <path class="st0" d="M172.76,144.6h72.75c12.81-14.05,29.2-24.75,50.36-30.41,1.06-.28,2.23-.61,3.44-.93h-72.79c-12.82,14.06-29.21,24.76-50.37,30.43-1.04.28-2.19.6-3.38.92h0Z"/>
  </g>
</svg>
